<?xml version="1.0" encoding="utf-8"?>
<!-- Generator: Adobe Illustrator 25.0.1, SVG Export Plug-In . SVG Version: 6.00 Build 0)  -->
<svg version="1.1" id="Calque_1" xmlns="http://www.w3.org/2000/svg" xmlns:xlink="http://www.w3.org/1999/xlink" x="0px" y="0px"
	 viewBox="0 0 300 300" style="enable-background:new 0 0 300 300;" xml:space="preserve" width="300" height="300">
<style type="text/css">
	.st0{fill:url(#SVGID_1_);}
	.st1{fill:url(#SVGID_2_);}
	.st2{fill:url(#SVGID_3_);}
	.st3{fill:url(#SVGID_4_);}
	.st4{fill:url(#SVGID_5_);}
	.st5{fill:url(#SVGID_6_);}
	.st6{display:none;}
	.st7{display:inline;}
	.st8{fill:#00FF00;}
</style>
<g>
	<linearGradient id="SVGID_1_" gradientUnits="userSpaceOnUse" x1="-51.0331" y1="185.3299" x2="202.616" y2="-68.3192">
		<stop  offset="0" style="stop-color:#8BEAFF"/>
		<stop  offset="0.4375" style="stop-color:#51F39C"/>
		<stop  offset="0.9323" style="stop-color:#FAC265"/>
	</linearGradient>
	<path class="st0" d="M84.7,16.9c-0.5-0.4-1.2-0.5-1.8-0.5c-0.6,0-1.1,0.1-1.7,0.4c-31,16-55.6,42.5-69.3,74.6
		c-0.5,1.1-0.3,2.3,0.3,3.4c0.7,1,1.8,1.6,3,1.6h67.6c2,0,3.6-1.6,3.6-3.6V19.9C86.4,18.7,85.8,17.7,84.7,16.9z"/>
	<linearGradient id="SVGID_2_" gradientUnits="userSpaceOnUse" x1="29.9083" y1="266.2714" x2="283.5574" y2="12.6222">
		<stop  offset="0" style="stop-color:#8BEAFF"/>
		<stop  offset="0.4375" style="stop-color:#51F39C"/>
		<stop  offset="0.9323" style="stop-color:#FAC265"/>
	</linearGradient>
	<path class="st1" d="M118,175.7c37.4-0.3,72.7-15.1,99.2-41.6l3.6-3.5c1.1-1.1,1.4-2.6,0.8-3.9c-0.6-1.3-1.9-2.2-3.2-2.2H118
		c-2,0-3.6,1.6-3.6,3.6v44c0,1,0.4,1.9,1,2.5C116.2,175.3,117.1,175.7,118,175.7z"/>
	<linearGradient id="SVGID_3_" gradientUnits="userSpaceOnUse" x1="-0.3485" y1="236.0145" x2="253.3006" y2="-17.6346">
		<stop  offset="0" style="stop-color:#8BEAFF"/>
		<stop  offset="0.4375" style="stop-color:#51F39C"/>
		<stop  offset="0.9323" style="stop-color:#FAC265"/>
	</linearGradient>
	<path class="st2" d="M116.8,96.3h106.5c30.7,0,49.8-18.1,53.4-21.7c1.2-1.2,1.4-3,0.5-4.4c-13.5-21.6-32.5-39.5-55-51.7
		C200,6.4,175,0,149.8,0c-10.9,0-21.9,1.2-32.6,3.6c-1.6,0.3-2.8,1.8-2.8,3.5v87C114.4,95.3,115.4,96.3,116.8,96.3z"/>
	<linearGradient id="SVGID_4_" gradientUnits="userSpaceOnUse" x1="-21.0782" y1="215.2849" x2="232.5709" y2="-38.3643">
		<stop  offset="0" style="stop-color:#8BEAFF"/>
		<stop  offset="0.4375" style="stop-color:#51F39C"/>
		<stop  offset="0.9323" style="stop-color:#FAC265"/>
	</linearGradient>
	<path class="st3" d="M82.8,124.5H5.3c-1.8,0-3.3,1.3-3.5,3c-2.3,15-2.3,30.2,0,45.2c0.2,1.7,1.7,3,3.5,3h77.5c2,0,3.6-1.6,3.6-3.6
		V128C86.4,126.1,84.8,124.5,82.8,124.5z"/>
	<linearGradient id="SVGID_5_" gradientUnits="userSpaceOnUse" x1="28.1652" y1="264.5282" x2="281.8143" y2="10.8791">
		<stop  offset="0" style="stop-color:#8BEAFF"/>
		<stop  offset="0.4375" style="stop-color:#51F39C"/>
		<stop  offset="0.9323" style="stop-color:#FAC265"/>
	</linearGradient>
	<path class="st4" d="M82.8,203.7H15.3c-1.2,0-2.3,0.6-3,1.6c-0.7,1-0.8,2.2-0.3,3.4c13.7,32.2,38.3,58.7,69.3,74.6
		c0.5,0.2,1,0.4,1.6,0.4c0.6,0,1.2-0.2,1.9-0.6c1.1-0.8,1.7-1.8,1.7-3v-72.8C86.4,205.3,84.8,203.7,82.8,203.7z"/>
	<linearGradient id="SVGID_6_" gradientUnits="userSpaceOnUse" x1="89.7451" y1="326.1081" x2="343.3942" y2="72.459">
		<stop  offset="0" style="stop-color:#8BEAFF"/>
		<stop  offset="0.4375" style="stop-color:#51F39C"/>
		<stop  offset="0.9323" style="stop-color:#FAC265"/>
	</linearGradient>
	<path class="st5" d="M298.2,127.4c-0.2-1.7-1.7-3-3.5-3h0l0,0c-29.3,0.5-46.9,18.8-48.8,20.9l-18.2,18.1
		c-25.6,25.6-61.1,40.3-97.3,40.3h-12.4c-2,0-3.6,1.6-3.6,3.6v85.7c0,1.6,1.2,3.1,2.8,3.5c9.2,2,18.7,3.2,28.1,3.5
		c0.8,0,1.5,0,2.2,0c0.7,0,1.5,0.1,2.3,0.1c38.9,0,76-15.2,104.4-42.8c29.5-28.6,45.7-66.5,45.7-106.8
		C299.9,139.7,298.7,130.7,298.2,127.4z"/>
</g>
<g id="Layer_1">
</g>
<g id="Calque_2_1_" class="st6">
	<g class="st7">
		<path class="st8" d="M83,93.1V15.8C50.5,32,25,59.5,11.2,93.1H83z"/>
		<path class="st8" d="M222.4,126.4H116.2v47.3l0,0c37.7,0,73.8-15,100.4-41.6L222.4,126.4z"/>
		<path class="st8" d="M116.2,93.1h108.2c19.9,0,39.1-7.9,53.2-22l0,0c-33.8-54.7-98.7-81.7-161.4-67.3L116.2,93.1L116.2,93.1z"/>
		<path class="st8" d="M83,126.4H1.9c-2.5,15.7-2.5,31.6,0,47.3H83V126.4z"/>
		<path class="st8" d="M83,206.9H11.2C25,240.5,50.5,268,83,284.2V206.9z"/>
		<path class="st8" d="M298,126.2c-18.3,0.2-36,7.5-49,20.5l-18.5,18.5c-26.6,26.6-62.8,41.6-100.5,41.6h-13.8v89.3
			c9.6,2.2,19.3,3.4,29.1,3.7c83.6,2.5,154.4-65.8,154.6-149.5C299.9,142.2,299.3,134.2,298,126.2"/>
		<path class="st8" d="M298,126.2"/>
	</g>
</g>
</svg>