<?xml version="1.0" encoding="utf-8"?>
<!-- Generator: Adobe Illustrator 25.0.0, SVG Export Plug-In . SVG Version: 6.00 Build 0)  -->
<svg version="1.1" id="Layer_1" xmlns="http://www.w3.org/2000/svg" xmlns:xlink="http://www.w3.org/1999/xlink" x="0px" y="0px"
	 viewBox="0 0 300 300" style="enable-background:new 0 0 300 300;" xml:space="preserve" width="300" height="300">
<path d="M83,93.1V15.8C50.5,32,25,59.5,11.2,93.1H83z"/>
<path d="M222.4,126.4H116.2v47.3l0,0c37.7,0,73.8-15,100.4-41.6L222.4,126.4z"/>
<path d="M116.2,93.1h108.2c19.9,0,39.1-7.9,53.2-22l0,0c-33.8-54.7-98.7-81.7-161.4-67.3V93.1z"/>
<path d="M83,126.4H1.9c-2.5,15.7-2.5,31.6,0,47.3H83V126.4z"/>
<path d="M83,206.9H11.2C25,240.5,50.5,268,83,284.2V206.9z"/>
<path d="M249,146.7l-18.5,18.5c-26.6,26.6-62.8,41.6-100.5,41.6h-13.8v89.3c9.6,2.2,19.3,3.4,29.1,3.7
	c83.6,2.5,154.4-65.8,154.6-149.5c0-8.1-0.6-16.1-1.9-24.1l0,0C279.7,126.4,262,133.7,249,146.7z"/>
</svg>